<?xml version="1.0" encoding="UTF-8" standalone="no"?>
<svg
   id="b759170a-51c3-4e2f-999d-77dec9fd6d11"
   data-name="Layer 1"
   width="1140.5601"
   height="787.27002"
   viewBox="0 0 1140.56 787.27"
   version="1.1"
   sodipodi:docname="hero-img.svg"
   xmlns:inkscape="http://www.inkscape.org/namespaces/inkscape"
   xmlns:sodipodi="http://sodipodi.sourceforge.net/DTD/sodipodi-0.dtd"
   xmlns="http://www.w3.org/2000/svg"
   xmlns:svg="http://www.w3.org/2000/svg">
  <sodipodi:namedview
     id="namedview322"
     pagecolor="#ffffff"
     bordercolor="#000000"
     borderopacity="0.25"
     inkscape:showpageshadow="2"
     inkscape:pageopacity="0.0"
     inkscape:pagecheckerboard="0"
     inkscape:deskcolor="#d1d1d1"
     showgrid="false" />
  <defs
     id="defs9">
    <linearGradient
       id="c518dc33-18b9-48bc-b516-0f83ad79191e"
       x1="852.39001"
       y1="835.88"
       x2="852.39001"
       y2="338.32999"
       gradientUnits="userSpaceOnUse"
       gradientTransform="translate(-29.72,-56.36)">
      <stop
         offset="0"
         stop-color="gray"
         stop-opacity="0.25"
         id="stop2" />
      <stop
         offset="0.54"
         stop-color="gray"
         stop-opacity="0.12"
         id="stop4" />
      <stop
         offset="1"
         stop-color="gray"
         stop-opacity="0.1"
         id="stop6" />
    </linearGradient>
  </defs>
  <title
     id="title11">maker launch</title>
  <path
     d="m 47.971229,481.11908 c 20.16,-32.93 65.750001,-27.19 98.080001,-10 32.33,17.19 64.59,42.85 100.17,37.92 30,-4.16 54.59999,-30.32 67.88999,-60.5 13.29,-30.18 17.19,-64.21 20.93,-97.54 q 7.05,-62.81 14.09,-125.7 c 1.72,-15.33 3.75,-31.51 12.37,-43.64 11.39,-16 32.27,-20.92 50.13,-16.11 17.86,4.81 33.09,17.71 46.12,32.1 41.74001,46.08 65.39001,108.37 101.88001,159.65 7.43,10.44 15.82,20.76 26.92,25.8 16,7.25 34.37,2.12 50,-5.95 51,-26.29 85.26,-79.94 118.93,-130 16.38,-24.33 36.35,-50.35 63.6,-53 28.67,-2.85 53.56,21.58 70.41,47.45 54.08,83.24 65.67,196.88 130.99997,269.48 8.11,9 17.06,17.32 27.37,22.91 a 70.65,70.65 0 0 0 10.6,4.65 c 57,19.73 76,98.93 33.84,145.89 -0.91,1 -1.84,2 -2.78,3 -6.26,6.61 -13.35,12.86 -21.81,14.83 -7.87,1.82 -16,-0.28 -23.8,-2.55 -49.85997,-14.55 -99.11997,-36.79 -150.66997,-35.71 -50.16,1 -97.74,24.17 -147.34,32.51 -33.35,5.61 -67.28,4.49 -101,3.28 q -168.46001,-6.06 -336.85001,-14.1 c -55.71999,-2.56 -111.45999,-5 -167.16999,-7.85 -42.920001,-2.23 -70.260001,-7.14 -75.240001,-56.95 -4.36,-43.62 -43.52,-97.63 -17.67,-139.87 z"
     fill="#eb1e1e"
     opacity="0.1"
     id="path13"
     style="fill:#006400" />
  <ellipse
     cx="789.90002"
     cy="749.53998"
     rx="269.98999"
     ry="37.73"
     fill="#30374e"
     id="ellipse15" />
  <path
     d="m 148.74,586.77 c 0,0 13.2,-3 21.85,5.87 0,0 -5.56,5 -18.64,-0.54 z"
     fill="#eb1e1e"
     id="path17"
     style="fill:#006000;fill-opacity:1" />
  <path
     d="m 147.28,586.64 c 0,0 -7.82,11.08 -2.86,22.45 0,0 6.76,-3.25 6.57,-17.45 z"
     fill="#eb1e1e"
     id="path19"
     style="fill:#006000;fill-opacity:1" />
  <path
     d="m 138.48,569.94 c 0,0 4.69,-10.15 27,2.12 0,0 -2.4,6.78 -11.88,6.88 -9.48,0.1 -12.32,-4.01 -15.12,-9 z"
     fill="#eb1e1e"
     id="path21"
     style="fill:#006000;fill-opacity:1" />
  <path
     d="m 137.06,569.32 c 0,0 -11.17,-0.52 -10.54,24.92 0,0 7.13,1 11.58,-7.38 4.45,-8.38 2.09,-12.71 -1.04,-17.54 z"
     fill="#eb1e1e"
     id="path23"
     style="fill:#006000;fill-opacity:1" />
  <path
     d="m 129.28,549.52 c 0,0 5,-17.68 28.47,-6.88 0,0 -4.1,16.19 -25.8,12.64 z"
     fill="#eb1e1e"
     id="path25"
     style="fill:#006000;fill-opacity:1" />
  <path
     d="m 120.57,524.18 c 0,0 10.58,-18.24 32.49,-3.44 0,0 -6.19,16.87 -30.29,9.55 z"
     fill="#eb1e1e"
     id="path27"
     style="fill:#006000;fill-opacity:1" />
  <path
     d="m 116.43,499.78 c 0,0 12.63,-16.95 34.36,-2.31 0,0 -12.06,14.94 -34.09,6.4 z"
     fill="#eb1e1e"
     id="path29"
     style="fill:#006000;fill-opacity:1" />
  <path
     d="m 112.69,476.06 c 0,0 12.76,-17.66 33.59,-3.15 0,0 -14.68,15.83 -33.33,7.07 z"
     fill="#eb1e1e"
     id="path31"
     style="fill:#006000;fill-opacity:1" />
  <path
     d="m 112.51,454.8 c 0,0 13.15,-22.53 32.65,-9.17 0,0 -14.42,19.57 -32.37,13.26 z"
     fill="#eb1e1e"
     id="path33"
     style="fill:#006000;fill-opacity:1" />
  <path
     d="m 114.28,429.82 c 0,0 14,-22.4 33.09,-7.18 0,0 -17.1,19.75 -32.87,11.15 z"
     fill="#eb1e1e"
     id="path35"
     style="fill:#006000;fill-opacity:1" />
  <path
     d="m 117.91,407.36 c 0,0 17,-21.31 33.55,-14.37 0,0 -17.68,22.6 -34,19.76 z"
     fill="#eb1e1e"
     id="path37"
     style="fill:#006000;fill-opacity:1" />
  <path
     d="m 122.91,385.96 c 0,0 19.54,-26 32.37,-18.62 0,0 -14.31,20.09 -33.58,23.35 z"
     fill="#eb1e1e"
     id="path39"
     style="fill:#006000;fill-opacity:1" />
  <path
     d="m 130.53,361.02 c 0,0 17.17,-21.32 31,-17.24 0,0 -14.45,21.89 -33.1,23.68 z"
     fill="#eb1e1e"
     id="path41"
     style="fill:#006000;fill-opacity:1" />
  <path
     d="m 137.38,337.71 c 0,0 19.18,-20.6 28.31,-17.82 0,0 -13.35,22.36 -28.92,22.15 z"
     fill="#eb1e1e"
     id="path43"
     style="fill:#006000;fill-opacity:1" />
  <path
     d="m 144.15,316.15 c 0,0 16.09,-24.15 25.82,-23 0,0 -9.31,21.19 -25.66,25.33 z"
     fill="#eb1e1e"
     id="path45"
     style="fill:#006000;fill-opacity:1" />
  <path
     d="m 151.14,287.24 c 0,0 14.39,-18.66 22.81,-19.18 0,0 -10.71,24.34 -23.07,25 z"
     fill="#eb1e1e"
     id="path47"
     style="fill:#006000;fill-opacity:1" />
  <path
     d="m 155.14,268.03 12.58,-37.69 c 0,0 3,33.1 -14,44.62 z"
     fill="#eb1e1e"
     id="path49"
     style="fill:#006000;fill-opacity:1" />
  <path
     d="m 158.53,227.17 c 0,0 0.44,-30.79 -1.33,-33.17 0,0 12.47,24.74 2.14,46.71 z"
     fill="#eb1e1e"
     id="path51"
     style="fill:#006000;fill-opacity:1" />
  <path
     d="m 128.64,549.15 c 0,0 -16.26,-8.62 -24.77,15.73 0,0 14.5,8.28 27,-9.81 z"
     fill="#eb1e1e"
     id="path53"
     style="fill:#006000;fill-opacity:1" />
  <path
     d="m 120,523.23 c 0,0 -19.72,-7.45 -27.35,17.88 0,0 15.47,9.15 29.51,-11.76 z"
     fill="#eb1e1e"
     id="path55"
     style="fill:#006000;fill-opacity:1" />
  <path
     d="m 115.64,501.31 c 0,0 -14.79,-15.11 -34.36,2.33 0,0 13.94,13.19 34.63,1.79 z"
     fill="#eb1e1e"
     id="path57"
     style="fill:#006000;fill-opacity:1" />
  <path
     d="m 112.22,476.1 c 0,0 -15,-15.81 -33.71,1.36 0,0 16.66,13.73 34,2.55 z"
     fill="#eb1e1e"
     id="path59"
     style="fill:#006000;fill-opacity:1" />
  <path
     d="m 112.55,455.4 c 0,0 -11.36,-23.47 -31.83,-11.67 0,0 12.86,20.63 31.24,15.74 z"
     fill="#eb1e1e"
     id="path61"
     style="fill:#006000;fill-opacity:1" />
  <path
     d="m 115.45,429.64 c 0,0 -11.33,-23.9 -32.06,-11.07 0,0 14.66,21.61 31.34,14.93 z"
     fill="#eb1e1e"
     id="path63"
     style="fill:#006000;fill-opacity:1" />
  <path
     d="m 119.98,407.34 c 0,0 -5.64,-26.65 -23.55,-27.87 0,0 5.68,28.13 21.51,32.88 z"
     fill="#eb1e1e"
     id="path65"
     style="fill:#006000;fill-opacity:1" />
  <path
     d="m 123.37,385.98 c 0,0 -3.67,-32.31 -18.46,-32.46 0,0 2.15,24.57 17.11,37.15 z"
     fill="#eb1e1e"
     id="path67"
     style="fill:#006000;fill-opacity:1" />
  <path
     d="m 132,359.99 c 0,0 -6.21,-26.66 -20.47,-29 0,0 3.5,26 19.53,35.72 z"
     fill="#eb1e1e"
     id="path69"
     style="fill:#006000;fill-opacity:1" />
  <path
     d="m 139.06,337.79 c 0,0 -2,-28.07 -10.9,-31.62 0,0 -3.61,25.78 8.65,35.38 z"
     fill="#eb1e1e"
     id="path71"
     style="fill:#006000;fill-opacity:1" />
  <path
     d="m 144.79,315.8 c 0,0 -3.15,-28.85 -12.31,-32.32 0,0 -1.5,23.09 11.1,34.3 z"
     fill="#eb1e1e"
     id="path73"
     style="fill:#006000;fill-opacity:1" />
  <path
     d="m 152.54,289.46 c 0,0 -1.64,-23.51 -8.35,-28.61 0,0 -4.58,26.19 5.35,33.56 z"
     fill="#eb1e1e"
     id="path75"
     style="fill:#006000;fill-opacity:1" />
  <path
     d="m 154.28,266.92 -8.8,-38.74 c 0,0 -6.23,32.64 9.57,45.78 z"
     fill="#eb1e1e"
     id="path77"
     style="fill:#006000;fill-opacity:1" />
  <path
     d="m 152.91,227.92 c 0,0 -17.63,-25.28 -17.49,-28.22 0,0 3.54,27.48 24.41,39.89 z"
     fill="#eb1e1e"
     id="path79"
     style="fill:#006000;fill-opacity:1" />
  <path
     d="m 154.28,220.03 c 0,0 -17.46,-36.39 -24.43,-39 0,0 22.09,9.43 25.61,37.8 z"
     fill="#eb1e1e"
     id="path81"
     style="fill:#006000;fill-opacity:1" />
  <path
     d="m 150.82,293.25 -1,-0.25 c 9.85,-42 11.24,-68.48 3.9,-74.56 l 0.68,-0.82 c 7.74,6.44 6.52,32.6 -3.58,75.63 z"
     fill="#444053"
     id="path83"
     style="fill:#006000;fill-opacity:1" />
  <path
     d="m 122.54,391.91 -1.55,-0.43 c 1.09,-3.86 2.27,-7.79 3.53,-11.66 11,-33.72 20.14,-65 25.75,-88.94 l 1.27,-0.75 c -5.62,24 -14.51,56.43 -25.49,90.18 -1.25,3.86 -2.43,7.76 -3.51,11.6 z"
     fill="#444053"
     id="path85"
     style="fill:#006000;fill-opacity:1" />
  <path
     d="m 169.59,616.31 c -0.22,-0.21 -22.22,-21.87 -39.12,-60.24 A 232.37,232.37 0 0 1 111.86,485.3 c -3,-30.53 1.1,-65.13 10,-96.9 l 1.28,1.32 c -20,71.31 -6.19,130.34 9.23,165.4 16.73,38 38.48,59.45 38.7,59.66 z"
     fill="#444053"
     id="path87" />
  <path
     d="m 193.81,502.1 c 0,0 8,-1.83 13.22,3.55 0,0 -3.37,3 -11.27,-0.33 z"
     fill="#eb1e1e"
     id="path89" />
  <path
     d="m 192.94,502.03 c 0,0 -4.72,6.7 -1.72,13.57 0,0 4.08,-2 4,-10.55 z"
     fill="#eb1e1e"
     id="path91" />
  <path
     d="m 187.62,491.92 c 0,0 2.83,-6.13 16.3,1.29 0,0 -1.45,4.09 -7.18,4.15 -5.73,0.06 -7.41,-2.42 -9.12,-5.44 z"
     fill="#eb1e1e"
     id="path93" />
  <path
     d="m 186.76,491.55 c 0,0 -6.76,-0.31 -6.38,15.06 0,0 4.31,0.6 7,-4.46 2.69,-5.06 1.27,-7.68 -0.62,-10.6 z"
     fill="#eb1e1e"
     id="path95" />
  <path
     d="m 182.03,479.58 c 0,0 3.07,-10.69 17.23,-4.18 0,0 -2.47,9.79 -15.59,7.64 z"
     fill="#eb1e1e"
     id="path97" />
  <path
     d="m 176.79,464.26 c 0,0 6.39,-11 19.64,-2.08 0,0 -3.75,10.2 -18.31,5.77 z"
     fill="#eb1e1e"
     id="path99" />
  <path
     d="m 174.28,449.51 c 0,0 7.64,-10.25 20.77,-1.4 0,0 -7.28,9 -20.6,3.87 z"
     fill="#eb1e1e"
     id="path101" />
  <path
     d="m 172.02,435.17 c 0,0 7.72,-10.68 20.31,-1.9 0,0 -8.87,9.57 -20.15,4.27 z"
     fill="#eb1e1e"
     id="path103"
     style="fill:#006000;fill-opacity:1" />
  <path
     d="m 171.92,422.31 c 0,0 8,-13.61 19.73,-5.54 0,0 -8.72,11.83 -19.57,8 z"
     fill="#eb1e1e"
     id="path105"
     style="fill:#006000;fill-opacity:1" />
  <path
     d="m 172.96,407.22 c 0,0 8.49,-13.55 20,-4.38 0,0 -10.34,11.94 -19.88,6.74 z"
     fill="#eb1e1e"
     id="path107"
     style="fill:#006000;fill-opacity:1" />
  <path
     d="m 175.18,393.64 c 0,0 10.27,-12.88 20.28,-8.68 0,0 -10.69,13.66 -20.53,11.94 z"
     fill="#eb1e1e"
     id="path109"
     style="fill:#006000;fill-opacity:1" />
  <path
     d="m 178.2,380.7 c 0,0 11.81,-15.71 19.57,-11.26 0,0 -8.65,12.15 -20.3,14.12 z"
     fill="#eb1e1e"
     id="path111"
     style="fill:#006000;fill-opacity:1" />
  <path
     d="m 182.81,365.64 c 0,0 10.38,-12.89 18.76,-10.42 0,0 -8.73,13.23 -20,14.31 z"
     fill="#eb1e1e"
     id="path113"
     style="fill:#006000;fill-opacity:1" />
  <path
     d="m 186.95,351.53 c 0,0 11.59,-12.45 17.11,-10.77 0,0 -8.06,13.51 -17.48,13.39 z"
     fill="#eb1e1e"
     id="path115"
     style="fill:#006000;fill-opacity:1" />
  <path
     d="m 191.04,338.5 c 0,0 9.73,-14.6 15.61,-13.92 0,0 -5.62,12.81 -15.51,15.32 z"
     fill="#eb1e1e"
     id="path117"
     style="fill:#006000;fill-opacity:1" />
  <path
     d="m 195.28,321.02 c 0,0 8.7,-11.28 13.79,-11.6 0,0 -6.48,14.72 -13.95,15.09 z"
     fill="#eb1e1e"
     id="path119"
     style="fill:#006000;fill-opacity:1" />
  <path
     d="m 197.69,309.4 7.59,-22.76 c 0,0 1.8,20 -8.49,27 z"
     fill="#eb1e1e"
     id="path121"
     style="fill:#006000;fill-opacity:1" />
  <path
     d="m 199.74,284.7 c 0,0 0.26,-18.61 -0.81,-20.05 0,0 7.54,14.95 1.29,28.24 z"
     fill="#eb1e1e"
     id="path123"
     style="fill:#006000;fill-opacity:1" />
  <path
     d="m 181.66,479.36 c 0,0 -9.82,-5.22 -15,9.5 0,0 8.77,5 16.33,-5.92 z"
     fill="#eb1e1e"
     id="path125" />
  <path
     d="m 176.45,463.64 c 0,0 -11.93,-4.5 -16.54,10.81 0,0 9.35,5.53 17.84,-7.1 z"
     fill="#eb1e1e"
     id="path127"
     style="fill:#006000;fill-opacity:1" />
  <path
     d="m 173.8,450.43 c 0,0 -8.93,-9.13 -20.77,1.4 0,0 8.43,8 20.94,1.08 z"
     fill="#eb1e1e"
     id="path129"
     style="fill:#006000;fill-opacity:1" />
  <path
     d="m 171.74,435.19 c 0,0 -9.07,-9.55 -20.38,0.83 0,0 10.07,8.29 20.54,1.54 z"
     fill="#eb1e1e"
     id="path131"
     style="fill:#006000;fill-opacity:1" />
  <path
     d="m 171.94,422.64 c 0,0 -6.87,-14.19 -19.25,-7.06 0,0 7.78,12.47 18.89,9.52 z"
     fill="#eb1e1e"
     id="path133"
     style="fill:#006000;fill-opacity:1" />
  <path
     d="m 173.69,407.09 c 0,0 -6.85,-14.45 -19.41,-6.69 0,0 8.86,13.07 18.95,9 z"
     fill="#eb1e1e"
     id="path135"
     style="fill:#006000;fill-opacity:1" />
  <path
     d="m 176.43,393.64 c 0,0 -3.41,-16.12 -14.24,-16.85 0,0 3.43,17 13,19.87 z"
     fill="#eb1e1e"
     id="path137"
     style="fill:#006000;fill-opacity:1" />
  <path
     d="m 178.48,380.71 c 0,0 -2.2,-19.53 -11.2,-19.63 0,0 1.3,14.86 10.34,22.47 z"
     fill="#eb1e1e"
     id="path139"
     style="fill:#006000;fill-opacity:1" />
  <path
     d="m 183.69,365 c 0,0 -3.75,-16.12 -12.37,-17.54 0,0 2.12,15.71 11.81,21.59 z"
     fill="#eb1e1e"
     id="path141"
     style="fill:#006000;fill-opacity:1" />
  <path
     d="m 187.96,351.58 c 0,0 -1.23,-17 -6.58,-19.12 0,0 -2.19,15.59 5.22,21.39 z"
     fill="#eb1e1e"
     id="path143"
     style="fill:#006000;fill-opacity:1" />
  <path
     d="m 191.43,338.28 c 0,0 -1.9,-17.44 -7.44,-19.54 0,0 -0.91,14 6.71,20.74 z"
     fill="#eb1e1e"
     id="path145"
     style="fill:#006000;fill-opacity:1" />
  <path
     d="m 196.11,322.36 c 0,0 -1,-14.21 -5,-17.3 0,0 -2.77,15.84 3.23,20.29 z"
     fill="#eb1e1e"
     id="path147"
     style="fill:#006000;fill-opacity:1" />
  <path
     d="m 197.19,308.73 -5.32,-23.42 c 0,0 -3.77,19.74 5.78,27.68 z"
     fill="#eb1e1e"
     id="path149"
     style="fill:#006000;fill-opacity:1" />
  <path
     d="m 196.34,285.16 c 0,0 -10.65,-15.27 -10.57,-17.06 0,0 2.13,16.61 14.75,24.11 z"
     fill="#eb1e1e"
     id="path151"
     style="fill:#006000;fill-opacity:1" />
  <path
     d="m 197.14,280.38 c 0,0 -10.56,-22 -14.77,-23.55 0,0 13.36,5.7 15.48,22.86 z"
     fill="#eb1e1e"
     id="path153"
     style="fill:#006000;fill-opacity:1" />
  <path
     d="m 195.07,324.64 -0.63,-0.15 c 6,-25.39 6.8,-41.4 2.36,-45.07 l 0.41,-0.5 c 4.71,3.9 3.97,19.72 -2.14,45.72 z"
     fill="#444053"
     id="path155"
     style="fill:#006000;fill-opacity:1" />
  <path
     d="m 177.98,384.3 -0.94,-0.27 c 0.66,-2.33 1.38,-4.7 2.14,-7 6.63,-20.39 12.17,-39.3 15.56,-53.77 l 0.77,-0.46 c -3.4,14.5 -8.77,34.12 -15.41,54.53 -0.76,2.31 -1.47,4.64 -2.12,6.97 z"
     fill="#444053"
     id="path157" />
  <path
     d="m 206.42,519.96 c -0.13,-0.13 -13.43,-13.22 -23.65,-36.42 a 140.72,140.72 0 0 1 -11.25,-42.78 c -1.83,-18.46 0.67,-39.38 6.06,-58.59 l 0.77,0.8 c -12.09,43.11 -3.74,78.8 5.58,100 10.12,23 23.26,35.93 23.4,36.06 z"
     fill="#444053"
     id="path159" />
  <path
     d="m 236.5,569.96 a 38.24,38.24 0 0 0 -7.5,2.14 c -53.94,21.54 -53.04,162.54 -53.04,162.54 h -15.88 c 0,0 -5,-60.51 -26.79,-146.84 -19.63,-77.67 60.88,-147.28 77.23,-160.48 1.84,-1.47 2.86,-2.25 2.86,-2.25 81.09,29.8 23.12,144.89 23.12,144.89 z"
     fill="#afc0e0"
     id="path161" />
  <path
     d="m 219.28,427.52 c -1.87,-0.86 -3.8,-1.68 -5.85,-2.43 0,0 -1,0.78 -2.86,2.25 -16.35,13.2 -96.86,82.81 -77.23,160.48 21.79,86.33 26.74,146.82 26.74,146.82 h 8.93 c 0,0 -4.95,-60.51 -26.79,-146.84 -19.55,-77.31 60.18,-146.66 77.06,-160.28 z"
     fill="#ffffff"
     opacity="0.2"
     id="path163" />
  <path
     d="m 504.04,587.82 c -21.84,86.33 -26.76,146.82 -26.76,146.82 h -15.91 c 0,0 1,-147.36 -56.73,-163.81 a 31.53,31.53 0 0 0 -3.81,-0.89 c 0,0 -58,-115.09 23.12,-144.87 0,0 0.82,0.61 2.3,1.8 15.03,12.03 97.64,82.38 77.79,160.95 z"
     fill="#afc0e0"
     id="path165" />
  <path
     d="M 236.5,569.96 A 38.24,38.24 0 0 0 229,572.1 979.21,979.21 0 0 1 210.52,427.34 c 1.84,-1.47 2.86,-2.25 2.86,-2.25 81.09,29.78 23.12,144.87 23.12,144.87 z"
     opacity="0.1"
     id="path167" />
  <path
     d="m 426.28,426.89 a 901,901 0 0 1 -21.61,144 31.53,31.53 0 0 0 -3.81,-0.89 c 0,0 -58,-115.09 23.12,-144.87 -0.03,-0.04 0.79,0.57 2.3,1.76 z"
     opacity="0.1"
     id="path169" />
  <path
     d="m 396.59,591.78 q -8.4,33.14 -19.69,68 c 0,0 -35.72,37.21 -122,0 0,0 -8.62,-24.3 -18.1,-65.61 -20.87,-90.83 -45.9,-263.92 7.43,-441.71 A 661.75,661.75 0 0 1 311.41,0 c 0,0 45.56,52.31 79,152.43 33.44,100.12 54.72,248.07 6.18,439.35 z"
     fill="#e3e8f4"
     id="path171" />
  <circle
     cx="318.66"
     cy="293.60001"
     r="71.629997"
     fill="#afc0e0"
     id="circle173" />
  <path
     d="m 369.46,293.64 a 50.8,50.8 0 0 1 -83,39.29 51.33,51.33 0 0 1 -9.52,-10.33 50,50 0 0 1 -3.28,-5.39 50.7,50.7 0 0 1 -5.79,-23.57 c 0,-0.41 0,-0.81 0,-1.21 a 50.86,50.86 0 0 1 37,-47.72 52.53,52.53 0 0 1 12.24,-1.86 h 1.52 a 50.8,50.8 0 0 1 50.83,50.79 z"
     fill="#eb1e1e"
     id="path175"
     style="fill:#008c00" />
  <path
     d="m 390.4,152.43 c -81.27,38.91 -146.22,0 -146.22,0 A 661.75,661.75 0 0 1 311.41,0 c 0,0 45.56,52.31 78.99,152.43 z"
     fill="#afc0e0"
     id="path177" />
  <path
     d="m 396.59,591.78 q -5.7,22.44 -12.7,45.65 -3.32,11.07 -7,22.32 c 0,0 -35.72,37.21 -122,0 0,0 -2.8,-7.89 -7,-22.32 -3.14,-10.9 -7.05,-25.51 -11.13,-43.29 0,0 32.12,13.71 77.71,13.71 a 214.11,214.11 0 0 0 82.12,-16.07 z"
     fill="#afc0e0"
     id="path179" />
  <path
     d="m 383.89,637.43 q -3.32,11.07 -7,22.32 c 0,0 -35.72,37.21 -122,0 0,0 -2.8,-7.89 -7,-22.32 -0.01,0 87.93,25.3 136,0 z"
     fill="#e3e8f4"
     id="path181" />
  <path
     d="m 304.9,244.64 -0.11,0.08 -36.9,47.64 c 0,0.4 0,0.8 0,1.21 a 50.7,50.7 0 0 0 5.79,23.57 l 43.48,-74.36 z"
     fill="#fff"
     opacity="0.2"
     id="path183"
     style="fill:#003800" />
  <path
     d="m 316.68,287.64 -30.22,45.25 a 51.33,51.33 0 0 1 -9.52,-10.33 l 36,-38.64 z"
     fill="#fff"
     opacity="0.2"
     id="path185"
     style="fill:#003800" />
  <path
     d="m 274.2,659.76 c 0,0 -8.62,-24.31 -18.1,-65.61 -20.87,-90.84 -45.9,-263.93 7.43,-441.72 A 664.18,664.18 0 0 1 322.38,14.34 c -6.77,-9.49 -11,-14.33 -11,-14.33 a 661.68,661.68 0 0 0 -67.2,152.42 c -53.33,177.79 -28.3,350.88 -7.43,441.72 9.48,41.3 18.1,65.61 18.1,65.61 34.09,14.69 60.28,17.77 79.5,16.13 -16.42,-1.25 -36.36,-5.88 -60.15,-16.13 z"
     fill="#ffffff"
     opacity="0.2"
     id="path187" />
  <path
     d="m 936.98,728.93 c 0,0 46.74,-58.16 43.64,-116.41 a 113.05,113.05 0 0 1 18.54,-69.06 190.19,190.19 0 0 1 22,-27"
     fill="none"
     stroke="#535461"
     stroke-miterlimit="10"
     stroke-width="2"
     id="path189" />
  <path
     d="m 1019.39,479.78 c -3.34,8.11 1.66,37.68 1.66,37.68 0,0 24.37,-17.48 27.71,-25.59 a 15.880531,15.880531 0 0 0 -29.37,-12.09 z"
     fill="#eb1e1e"
     id="path191"
     style="fill:#006000;fill-opacity:1" />
  <path
     d="m 976.61,514.72 c 1.61,8.62 21.88,30.72 21.88,30.72 0,0 11,-27.91 9.35,-36.54 a 15.883838,15.883838 0 0 0 -31.23,5.82 z"
     fill="#eb1e1e"
     id="path193"
     style="fill:#006000;fill-opacity:1" />
  <path
     d="m 946.07,591.94 c 5.74,6.63 34.4,15.48 34.4,15.48 0,0 -4.64,-29.63 -10.38,-36.27 a 15.88,15.88 0 0 0 -24,20.79 z"
     fill="#eb1e1e"
     id="path195" />
  <path
     d="m 936.12,655.57 c 4.53,7.51 31.28,21.07 31.28,21.07 0,0 0.44,-30 -4.09,-37.5 a 15.884277,15.884277 0 1 0 -27.19,16.43 z"
     fill="#eb1e1e"
     id="path197" />
  <path
     d="m 1028.68,559.71 c -8.14,3.25 -37.66,-2.05 -37.66,-2.05 0,0 17.72,-24.19 25.87,-27.45 a 15.88438,15.88438 0 0 1 11.79,29.5 z"
     fill="#eb1e1e"
     id="path199"
     style="fill:#006000;fill-opacity:1" />
  <path
     d="m 1016.1,633.98 c -8.74,0.67 -35.32,-13.22 -35.32,-13.22 0,0 24.14,-17.79 32.89,-18.46 a 15.89,15.89 0 0 1 2.43,31.68 z"
     fill="#eb1e1e"
     id="path201"
     style="fill:#006000;fill-opacity:1" />
  <path
     d="m 993.97,704.48 c -8.51,2.14 -37.05,-7.06 -37.05,-7.06 0,0 20.79,-21.61 29.3,-23.74 a 15.880039,15.880039 0 1 1 7.75,30.8 z"
     fill="#eb1e1e"
     id="path203" />
  <path
     d="m 1019.39,479.78 c -3.34,8.11 1.66,37.68 1.66,37.68 0,0 24.37,-17.48 27.71,-25.59 a 15.880531,15.880531 0 0 0 -29.37,-12.09 z"
     opacity="0.25"
     id="path205"
     style="fill:#006000;fill-opacity:1" />
  <path
     d="m 976.61,514.72 c 1.61,8.62 21.88,30.72 21.88,30.72 0,0 11,-27.91 9.35,-36.54 a 15.883838,15.883838 0 0 0 -31.23,5.82 z"
     opacity="0.25"
     id="path207"
     style="fill:#006000;fill-opacity:1" />
  <path
     d="m 946.07,591.94 c 5.74,6.63 34.4,15.48 34.4,15.48 0,0 -4.64,-29.63 -10.38,-36.27 a 15.88,15.88 0 0 0 -24,20.79 z"
     opacity="0.25"
     id="path209"
     style="fill:#006000;fill-opacity:1" />
  <path
     d="m 936.12,655.57 c 4.53,7.51 31.28,21.07 31.28,21.07 0,0 0.44,-30 -4.09,-37.5 a 15.884277,15.884277 0 1 0 -27.19,16.43 z"
     opacity="0.25"
     id="path211" />
  <path
     d="m 1028.68,559.71 c -8.14,3.25 -37.66,-2.05 -37.66,-2.05 0,0 17.72,-24.19 25.87,-27.45 a 15.88438,15.88438 0 0 1 11.79,29.5 z"
     opacity="0.25"
     id="path213"
     style="fill:#006000;fill-opacity:1" />
  <path
     d="m 1016.1,633.98 c -8.74,0.67 -35.32,-13.22 -35.32,-13.22 0,0 24.14,-17.79 32.89,-18.46 a 15.89,15.89 0 0 1 2.43,31.68 z"
     opacity="0.25"
     id="path215"
     style="fill:#006000;fill-opacity:1" />
  <path
     d="m 993.97,704.48 c -8.51,2.14 -37.05,-7.06 -37.05,-7.06 0,0 20.79,-21.61 29.3,-23.74 a 15.880039,15.880039 0 1 1 7.75,30.8 z"
     opacity="0.25"
     id="path217" />
  <path
     d="m 937.4,726.5 c 0,0 66.3,-34.24 87.07,-88.74 a 113,113 0 0 1 44.94,-55.63 189.91,189.91 0 0 1 31,-15.76"
     fill="none"
     stroke="#535461"
     stroke-miterlimit="10"
     stroke-width="2"
     id="path219" />
  <path
     d="m 1113.7,532.1 c -6.34,6.07 -13.75,35.13 -13.75,35.13 0,0 29.36,-6.11 35.7,-12.17 a 15.89656,15.89656 0 0 0 -21.95,-23 z"
     fill="#eb1e1e"
     id="path221"
     style="fill:#006000;fill-opacity:1" />
  <path
     d="m 1060.44,546.71 c -2,8.54 7.55,37 7.55,37 0,0 21.29,-21.07 23.35,-29.66 a 15.88,15.88 0 0 0 -30.9,-7.34 z"
     fill="#eb1e1e"
     id="path223"
     style="fill:#006000;fill-opacity:1" />
  <path
     d="m 1001.22,604.93 c 2.56,8.39 25.18,28.09 25.18,28.09 0,0 7.77,-29 5.21,-37.35 a 15.884739,15.884739 0 0 0 -30.39,9.26 z"
     fill="#eb1e1e"
     id="path225"
     style="fill:#006000;fill-opacity:1" />
  <path
     d="m 966.34,659.07 c 1.1,8.71 20.06,31.94 20.06,31.94 0,0 12.56,-27.23 11.45,-35.94 a 15.881436,15.881436 0 0 0 -31.51,4 z"
     fill="#eb1e1e"
     id="path227"
     style="fill:#006000;fill-opacity:1" />
  <path
     d="m 1089.81,608.94 c -8.77,-0.32 -33.6,-17.13 -33.6,-17.13 0,0 26,-14.93 34.77,-14.61 a 15.880778,15.880778 0 1 1 -1.17,31.74 z"
     fill="#eb1e1e"
     id="path229"
     style="fill:#006000;fill-opacity:1" />
  <path
     d="m 1048.21,671.74 c -8.27,-2.93 -26.94,-26.4 -26.94,-26.4 0,0 29.29,-6.47 37.55,-3.54 a 15.882189,15.882189 0 1 1 -10.61,29.94 z"
     fill="#eb1e1e"
     id="path231"
     style="fill:#006000;fill-opacity:1" />
  <path
     d="m 999.4,727.23 c -8.64,-1.49 -31,-21.47 -31,-21.47 0,0 27.77,-11.32 36.41,-9.83 a 15.8812,15.8812 0 1 1 -5.4,31.3 z"
     fill="#eb1e1e"
     id="path233"
     style="fill:#006000;fill-opacity:1" />
  <path
     d="m 1031.67,694.36 -51.39,-74.53 c 0,0 -1,-18.45 -4.32,-22.76 -3.32,-4.31 -0.72,-13.9 -0.72,-13.9 0,0 3.6,-5.27 0.48,-5.75 -3.12,-0.48 -0.48,-12.23 -0.48,-12.23 L 975,546.5 c 0,0 2.88,-18 0.48,-22.28 a 7.07,7.07 0 0 1 0.24,-7.67 c 0,0 2.88,-10.31 0,-12.94 -2.88,-2.63 -2.16,-18.7 -1.44,-31.4 0.72,-12.7 -5.05,-19.89 -5.05,-21.81 0,-1.92 -19,-20.61 -19,-22.28 0,-1.67 -12,-8.63 -19.21,-10.55 -7.21,-1.92 -10.81,-3.35 -10.57,-4.31 0.24,-0.96 -11.29,-4.79 -11.29,-4.79 0,0 -10.09,-0.72 -13.94,-5.76 -3.85,-5.04 -15.59,-6.48 -15.93,-6.53 -0.07,-0.33 -0.15,-0.67 -0.22,-1 -0.07,-0.33 -0.15,-0.72 -0.22,-1.08 0.91,-1.53 1.75,-3.09 2.51,-4.7 0.23,-0.49 0.45,-1 0.66,-1.46 4.21,-0.19 8.53,-1.09 11.83,-3.67 a 16.11,16.11 0 0 0 5.75,-11.49 25.19,25.19 0 0 0 -2.81,-12.77 c -2.1,-4.32 -5.19,-8.79 -4.13,-13.47 0.47,-2 1.68,-3.8 2.3,-5.78 1.17,-3.75 0.09,-7.87 -1.73,-11.35 -1.82,-3.48 -4.35,-6.54 -6.37,-9.91 a 38.7,38.7 0 0 1 -5.07,-14 c -0.41,-2.6 -0.57,-5.34 -1.88,-7.63 a 14.21,14.21 0 0 0 -4.21,-4.25 42.07,42.07 0 0 0 -25.82,-7.83 c -6.54,0.23 -13.06,2 -19.55,1.19 -3.91,-0.48 -7.64,-1.87 -11.42,-3 -8.06,-2.38 -17.35,-3.36 -24.37,1.25 -7.02,4.61 -9.81,13.68 -14.56,20.77 -4.2,6.28 -10.36,11.54 -13.56,18.18 0,-0.12 0.06,-0.25 0.1,-0.38 a 21.75,21.75 0 0 0 -1.79,4.84 c -1.22,5.22 -0.2,10.68 1.07,15.89 0.65,2.69 1.55,5.61 3.88,7.1 2.33,1.49 5.63,1.16 8.39,1.65 -0.1,0.45 -0.22,0.91 -0.32,1.37 a 54.9,54.9 0 0 0 38.09,64 c 0,0.49 0,1 0,1.46 a 36.33,36.33 0 0 1 -0.25,4.12 v 0 c 0,0 -24.15,-5 -30.64,-1.6 -6.49,3.4 -19.22,6 -21.14,7.9 -1.92,1.9 -6.72,0.48 -11,11.75 -4.28,11.27 -4.8,22.76 -10.33,28 -5.53,5.24 -8.4,8.87 -8.64,12.71 -0.24,3.84 0.72,4.79 -1.45,6 -2.17,1.21 -5.28,6.23 -4.32,8.15 0,0 1.2,4.79 -2.64,7.18 -3.84,2.39 -3.37,7.19 -3.37,7.19 0,0 -1.44,5.28 -4.8,6.47 -3.36,1.19 -5.53,9.11 -5.53,9.11 l -10.93,12.55 -21.59,-23.9 a 9.1,9.1 0 0 0 -12.85,-0.66 l -10.6,9.56 a 20.94,20.94 0 0 0 -10.61,6.32 27.35,27.35 0 0 0 -5.49,8.18 l -5.81,5.22 a 14.75,14.75 0 0 0 -1.49,16.28 l 13.83,15.29 0.09,0.13 c -5.23,0.66 -9.85,2.34 -13.38,5.45 -20.65,18.21 -20.9,35 -17.77,42.65 3.13,7.65 29.3,37.15 29.3,37.15 0,0 15.21,19.77 37.17,30.29 v 0 l -0.17,0.17 c -0.43,0.46 -0.86,1 -1.28,1.5 l -0.36,0.46 -0.33,0.46 -0.39,0.58 c -0.11,0.15 -0.21,0.31 -0.31,0.47 -0.1,0.16 -0.28,0.45 -0.41,0.69 l -0.27,0.46 c -0.16,0.3 -0.33,0.61 -0.49,0.93 l -0.16,0.31 c -0.2,0.42 -0.4,0.85 -0.59,1.3 -0.07,0.16 -0.13,0.33 -0.2,0.49 -0.12,0.31 -0.25,0.63 -0.37,1 -0.12,0.37 -0.15,0.41 -0.22,0.62 -0.07,0.21 -0.21,0.62 -0.31,0.94 -0.1,0.32 -0.14,0.45 -0.2,0.67 -0.06,0.22 -0.2,0.7 -0.29,1.06 -0.09,0.36 -0.11,0.42 -0.17,0.65 -0.13,0.55 -0.26,1.12 -0.37,1.72 0,0.22 -0.08,0.45 -0.12,0.68 q -0.12,0.6 -0.21,1.23 c -0.05,0.29 -0.08,0.58 -0.12,0.87 -0.04,0.29 -0.1,0.79 -0.15,1.19 l -0.09,0.92 c 0,0.44 -0.08,0.9 -0.11,1.36 0,0.28 0,0.56 -0.05,0.84 0,0.76 -0.08,1.52 -0.09,2.32 -0.48,28 1.16,32.11 1.16,32.11 0,0 3.39,8.93 12.75,9.57 a 16.3,16.3 0 0 0 4.11,-0.22 c 12.49,-2.16 41.79,-7.19 52.12,-5.27 6.21,1.15 17.71,-0.55 25.9,-2.1 l 2.15,-0.41 1.5,4.76 4.75,-1.3 4,2.33 2.55,1.46 c 4.74,16.08 24,10.6 24,10.6 l 4.52,2.62 46.36,1.2 c 0,0 10,6 16.41,7.88 a 15.24,15.24 0 0 0 2.33,0.51 105.21,105.21 0 0 0 12.92,0.24 c 3.55,-0.09 6.3,-0.24 6.3,-0.24 0,0 -0.47,-12.59 -1.15,-26.68 17.72,-0.74 33.43,-1.85 42.94,-3.52 24.76,-4.35 35.09,-26.86 38.89,-38.89 a 113.19,113.19 0 0 1 2.43,14.93 106.74,106.74 0 0 0 3.85,12.94 43.73,43.73 0 0 0 5.28,9.58 c 18.26,-6.23 7.21,-15.57 3.36,-19.65 -3.85,-4.08 2.65,-7.43 2.65,-7.43 0,0 5,-3.35 4.56,-6.47 -0.44,-3.12 -0.72,-6.47 15.61,-6.23 16.33,0.24 15.65,-13.45 15.65,-13.45 z m -253.66,-153 c 0.21,1.37 2.49,16.14 4.55,20 0.43,0.82 0.6,3.73 0.54,7.89 -9.68,-0.77 -19.76,-1.18 -19.76,-1.18 a 2.32,2.32 0 0 1 0.52,1.23 l -1.52,-0.34 -2.21,-0.54 17.83,-27.12 z m -35.32,56.2 16.75,2.66 1.41,0.22 a 55.11,55.11 0 0 0 -0.87,7.91 c 0,0.25 0.38,0.55 0.92,0.9 a 21.57,21.57 0 0 0 -0.33,4 c 0.27,1.33 8.1,4.19 17.08,6.57 -0.12,0.48 -0.24,0.94 -0.36,1.37 v 0 c -7.93,-4.17 -20.43,-6.12 -21.87,-9.22 -1.44,-3.1 -44,-18 -44,-18 0,0 -1.55,-0.82 -4.23,-2.12 l 11.2,2.12 3.08,-0.31 a 167.91,167.91 0 0 0 21.22,3.88 z"
     fill="url(#c518dc33-18b9-48bc-b516-0f83ad79191e)"
     id="path235"
     style="fill:url(#c518dc33-18b9-48bc-b516-0f83ad79191e)" />
  <path
     d="m 976.99,704.79 c 0,0 -6.66,40.23 -40.47,46.18 -33.81,5.95 -146.66,4.76 -146.66,4.76 0,0 -64.52,-9.28 -87.85,-63.8 -23.33,-54.52 -38.33,-76.19 -18.33,-77.14 20,-0.95 127.85,36.43 134,36.9 6.15,0.47 165.26,-82.85 159.31,53.1 z"
     fill="#434175"
     id="path237" />
  <path
     d="m 976.99,704.79 c 0,0 -6.66,40.23 -40.47,46.18 -33.81,5.95 -146.66,4.76 -146.66,4.76 0,0 -64.52,-9.28 -87.85,-63.8 -23.33,-54.52 -38.33,-76.19 -18.33,-77.14 20,-0.95 127.85,36.43 134,36.9 6.15,0.47 165.26,-82.85 159.31,53.1 z"
     opacity="0.05"
     id="path239" />
  <path
     d="m 674.35,749.54 c 0,0 3.37,8.88 12.64,9.51 a 16.43,16.43 0 0 0 4.07,-0.22 c 12.38,-2.14 41.43,-7.14 51.66,-5.24 6.16,1.15 17.55,-0.55 25.66,-2.08 5.4,-1 9.34,-2 9.34,-2 0,0 -9.52,-31.66 -10.72,-32.61 -1.2,-0.95 -42.85,-25.95 -42.85,-25.95 l -33,-2.37 h -0.1 c 0,0 -6.11,0.41 -11.18,6.57 -3.49,4.21 -6.48,11.13 -6.68,22.47 -0.46,27.87 1.16,31.92 1.16,31.92 z"
     fill="#565387"
     id="path241" />
  <path
     d="m 674.35,749.54 c 0,0 3.37,8.88 12.64,9.51 a 135.54,135.54 0 0 1 -9,-13.08 l 0.17,-23.09 c -1.47,-17.29 6.62,-28.36 13,-34.27 h -0.1 c 0,0 -17.38,1.18 -17.86,29 -0.48,27.82 1.15,31.93 1.15,31.93 z"
     opacity="0.05"
     id="path243" />
  <path
     d="m 817.48,699.07 30.71,-24 48.33,-47.62 c 0,0 -5.22,-0.25 -13.09,-0.59 -2,1.25 -7.45,5.18 -7.65,10 -0.24,5.82 -13.07,0.4 -19.73,3.73 -6.66,3.33 -39.28,45.08 -45,44.81 -5.72,-0.27 -10.23,-2.9 -12.62,1.15 0,0.09 -0.11,0.17 -0.17,0.26 z"
     opacity="0.1"
     id="path245" />
  <path
     d="m 679.88,695.17 c 1.09,0.53 2.19,1 3.32,1.52 23.34,10 52.14,31 54.29,34.76 1.3,2.32 18,12.46 30.89,20.06 5.4,-1 9.34,-2 9.34,-2 0,0 -9.52,-31.66 -10.72,-32.61 -1.2,-0.95 -42.85,-25.95 -42.85,-25.95 l -33,-2.37 h -0.1 c 0,0 -6.1,0.43 -11.17,6.59 z"
     opacity="0.1"
     id="path247" />
  <path
     d="m 615.12,626.93 c 3.09,7.62 29,36.91 29,36.91 0,0 16.42,21.42 39.76,31.42 23.34,10 52.14,31 54.28,34.76 1.38,2.45 20,13.65 33.08,21.35 l 2.93,1.71 6.5,3.77 3.44,2 c 0,0 8,-6.4 15.91,-12.84 7.91,-6.44 15.63,-12.75 15.76,-13.11 0.23,-0.71 3.32,-8.81 2.61,-9.28 -0.37,-0.25 -2,-3.55 -5,-7.37 a 33.82,33.82 0 0 0 -12.13,-10 c -11,-5 -15.71,-16.38 -15.71,-16.38 0,0 -1,-0.76 -2.63,-1.76 -2.82,-1.78 -7.35,-4.34 -10.7,-4.77 -5.25,-0.66 -15,-11.37 -15,-11.37 0,0 -6.67,-4.29 -9.29,-9.76 -2.5,-5.22 -39.42,-30.58 -42.84,-32.92 l 89.51,57.48 21.42,13.77 30.71,-24 48.34,-47.62 c 0,0 -6.5,-0.32 -16,-0.72 -23.49,-1 -65.21,-2.61 -70.48,-1.42 a 40.17,40.17 0 0 1 -13.1,0.85 c 0,0 -11.88,0.54 -19.74,-3.61 -7.86,-4.15 -20.25,-6.09 -21.68,-9.16 -1.43,-3.07 -43.57,-17.85 -43.57,-17.85 0,0 -57.37,-30.47 -77.85,-12.37 -20.48,18.1 -20.63,34.68 -17.53,42.29 z"
     fill="#434175"
     id="path249" />
  <path
     d="m 800.1,452.19 7.38,24.52 9.52,55.23 35,2.38 10.13,-16.8 10.15,-16.77 c 0,0 6.3,-22.32 10.83,-43.91 4,-19.1 6.62,-37.64 2.26,-39.65 -3.86,-1.79 -6.4,-8.22 -8,-15.14 -0.21,-0.85 -0.4,-1.72 -0.58,-2.59 a 134.62,134.62 0 0 1 -2.32,-17.75 c 0,0 -73.33,-3.8 -63.09,26.43 a 48.18,48.18 0 0 1 2.76,16.08 38.23,38.23 0 0 1 -0.25,4.09 34.3,34.3 0 0 1 -13.79,23.88 z"
     fill="#ee8e9e"
     id="path251" />
  <path
     d="m 784.86,448.14 2.62,41.66 5.95,35.47 6.67,16.43 5.95,89.88 c 0,0 57.41,6.64 71.37,-0.12 a 6.14,6.14 0 0 0 2.53,-2 c 16.86,-25.43 11.33,-99.19 11.33,-99.19 l 6.43,-47.63 -4.29,-24.72 -10.35,-1.1 -8,-0.85 c 0,0 -1.8,2.22 -4.4,5.65 -7.06,9.32 -20,27.65 -19.17,35.3 1.18,10.48 -1.43,21.19 -5.48,22.86 -4.05,1.67 -7.38,4.52 -8.09,1.67 -0.71,-2.85 -1.43,-3.57 -0.72,-7.62 0.71,-4.05 -3.1,-16.43 -3.1,-16.43 0,0 -6.42,-14.52 -6,-20.71 0.42,-6.19 -0.71,-13.34 -2.62,-15 -1.91,-1.66 -4.52,-3.34 -2.38,-11 2.14,-7.66 -9.39,-22.45 -9.39,-22.45 z"
     fill="#e3e8f4"
     id="path253" />
  <path
     d="m 860.69,552.19 2.38,71.19 13.75,7.62 a 6.15,6.15 0 0 0 2.53,-2 c 16.87,-25.47 11.34,-99.22 11.34,-99.22 l 6.43,-47.62 -4.29,-24.71 -10.36,-1.1 c 4,-19.1 6.62,-37.64 2.27,-39.65 -3.87,-1.79 -6.41,-8.22 -8.06,-15.14 v 0 l -7.4,50.4 c 0,0 0.62,4.54 0.84,9.22 0.17,3.48 0.11,7 -0.6,8.87 -1.67,4.29 -0.48,11.91 -0.48,11.91 -4.29,7.56 -6.43,21.57 -7.48,35.1 -1.41,17.99 -0.87,35.13 -0.87,35.13 z"
     opacity="0.1"
     id="path255" />
  <path
     d="m 876.91,400.46 c 0,0 12,1.49 15.8,6.49 3.8,5 13.81,5.69 13.81,5.69 0,0 11.43,3.81 11.19,4.76 -0.24,0.95 3.33,2.39 10.48,4.29 7.15,1.9 19,8.81 19,10.48 0,1.67 18.81,20.23 18.81,22.14 0,1.91 5.72,9 5,21.66 -0.72,12.66 -1.43,28.57 1.43,31.19 2.86,2.62 0,12.86 0,12.86 a 7,7 0 0 0 -0.15,7.62 c 2.38,4.29 -0.47,22.15 -0.47,22.15 l 0.23,18.57 c 0,0 -2.62,11.66 0.48,12.14 3.1,0.48 -0.48,5.71 -0.48,5.71 0,0 -2.62,9.53 0.72,13.81 3.34,4.28 4.28,22.62 4.28,22.62 l 51,74 c 0,0 0.72,13.57 -15.47,13.33 -16.19,-0.24 -16,3.1 -15.48,6.19 0.52,3.09 -4.52,6.43 -4.52,6.43 0,0 -6.43,3.33 -2.62,7.38 3.81,4.05 14.76,13.33 -3.33,19.52 a 43.16,43.16 0 0 1 -5.24,-9.52 107.72,107.72 0 0 1 -3.81,-12.85 c 0,0 -1.67,-18.1 -5,-20.48 -3.33,-2.38 -2.86,-13.81 -2.86,-13.81 0,0 4.76,-9.28 -1.9,-13.09 -6.66,-3.81 -103.43,-57.33 -103.43,-57.33 L 862,551.22 c 0,0 -1.67,-52.61 8.33,-70.23 0,0 -1.19,-7.62 0.48,-11.9 1.67,-4.28 -0.24,-18.1 -0.24,-18.1 z"
     fill="#565387"
     id="path257" />
  <path
     d="m 814.51,429.02 c 0,0 -23.93,-4.93 -30.36,-1.6 -6.43,3.33 -19,6 -21,7.86 -2,1.86 -6.67,0.48 -10.95,11.67 -4.28,11.19 -4.77,22.61 -10.24,27.85 -5.47,5.24 -8.33,8.81 -8.57,12.62 -0.24,3.81 0.71,4.76 -1.43,6 -2.14,1.24 -5.24,6.19 -4.29,8.1 0.95,1.91 49.61,43.75 49.61,43.75 0,0 2.39,16 4.53,20 2.14,4 -2.38,59.76 -7.14,63.57 -4.76,3.81 32.14,3.46 32.14,3.46 0,0 1.66,-36.55 3.09,-38.46 1.43,-1.91 -1,-41 -1,-41 0,0 -0.24,-33.33 2.86,-42.14 3.1,-8.81 2.75,-38.06 2.75,-38.06 0,0 2.74,-17.57 6.07,-21.67 3.33,-4.1 -6.07,-21.95 -6.07,-21.95 z"
     opacity="0.1"
     id="path259" />
  <path
     d="m 813.8,428.31 c 0,0 -23.94,-4.93 -30.37,-1.6 -6.43,3.33 -19,5.95 -20.95,7.86 -1.95,1.91 -6.66,0.47 -11,11.66 -4.34,11.19 -4.76,22.62 -10.24,27.86 -5.48,5.24 -8.33,8.81 -8.57,12.62 -0.24,3.81 0.72,4.76 -1.42,5.95 -2.14,1.19 -5.24,6.19 -4.29,8.09 0.95,1.9 49.52,43.81 49.52,43.81 0,0 2.38,16 4.52,20 2.14,4 -2.38,59.75 -7.14,63.56 -4.76,3.81 32.14,3.46 32.14,3.46 0,0 1.67,-36.55 3.1,-38.45 1.43,-1.9 -1,-41 -1,-41 0,0 -0.23,-33.33 2.86,-42.14 3.09,-8.81 2.75,-38.1 2.75,-38.1 0,0 2.74,-17.57 6.06,-21.66 3.32,-4.09 -5.97,-21.92 -5.97,-21.92 z"
     fill="#565387"
     id="path261" />
  <path
     d="m 811.28,408.14 a 48.18,48.18 0 0 1 2.76,16.08 54.63,54.63 0 0 0 62.65,-24.76 134.62,134.62 0 0 1 -2.32,-17.75 c 0,0 -73.32,-3.8 -63.09,26.43 z"
     opacity="0.1"
     id="path263" />
  <path
     d="m 775.1,370.52 a 54.52,54.52 0 1 0 1.18,-11.33 54.53,54.53 0 0 0 -1.18,11.33 z"
     fill="#ee8e9e"
     id="path265" />
  <path
     d="m 740.1,496.7 -13.09,4.05 c 0,0 1.19,4.76 -2.62,7.14 -3.81,2.38 -3.33,7.15 -3.33,7.15 0,0 -1.43,5.23 -4.76,6.42 -3.33,1.19 -5.48,9 -5.48,9 l -10.95,12.62 c 0,0 -4.05,3.33 -3.33,5 0.72,1.67 -4.29,2.14 -4.29,2.14 l 2.62,42.42 22.62,4.29 14,-1.43 11.43,-4.29 10,-6 4.56,-11.57 20,-30.47 z"
     fill="#565387"
     id="path267" />
  <path
     d="m 695.58,553.64 c 0,0 -29,-41.91 -50.71,-19.29 -21.71,22.62 8.81,59.28 15.95,58.09 7.14,-1.19 41.19,-3.09 41.19,-3.09 z"
     fill="#ee8e9e"
     id="path269" />
  <rect
     x="91.807854"
     y="833.0835"
     width="61.419998"
     height="69.800003"
     rx="12.62"
     ry="12.62"
     transform="rotate(-42.05)"
     fill="#30374e"
     id="rect271" />
  <rect
     x="91.807854"
     y="833.0835"
     width="61.419998"
     height="69.800003"
     rx="12.62"
     ry="12.62"
     transform="rotate(-42.05)"
     opacity="0.1"
     id="rect273" />
  <rect
     x="94.726776"
     y="831.06891"
     width="61.419998"
     height="69.800003"
     rx="12.62"
     ry="12.62"
     transform="rotate(-42.05)"
     fill="#30374e"
     id="rect275" />
  <circle
     cx="672.39001"
     cy="560.73999"
     r="13.57"
     fill="#eb1e1e"
     id="circle277" />
  <circle
     cx="672.39001"
     cy="560.73999"
     r="13.57"
     opacity="0.1"
     id="circle279" />
  <circle
     cx="673.15002"
     cy="559.02002"
     r="13.57"
     fill="#eb1e1e"
     id="circle281"
     style="fill:#006000;fill-opacity:1" />
  <path
     d="m 676.78,562.41 c -0.24,31.43 64.76,38.09 64.76,38.09 l 16.6,2.64 7.44,1.18 3.1,-30.68 c 0,0 -3.41,-0.51 -7.67,-1.5 -6.29,-1.47 -14.44,-4 -16.15,-7.55 -2.85,-5.95 -67.85,-33.6 -68.08,-2.18 z"
     fill="#ee8e9e"
     id="path283" />
  <path
     d="m 776.28,359.19 a 6.47,6.47 0 0 1 4,1.78 c 1.84,1.95 1.94,5.41 4.33,6.61 a 4.92,4.92 0 0 0 2.84,0.33 c 6.33,-0.9 10,-8 16.07,-10 3.46,-1.12 7.27,-0.39 10.65,0.91 a 7.93,7.93 0 0 1 3.53,2.27 c 2,2.63 0.61,6.5 1.55,9.69 1.31,4.42 6.59,6.18 11.16,6.76 4.57,0.58 9.72,0.9 12.77,4.35 2.16,2.45 2.71,6 2.27,9.21 a 7.29,7.29 0 0 0 0,3.41 c 1.26,3.57 7.44,3 9.05,0.22 1.18,-2.05 0.82,-3.75 3.6,-4.32 1.88,-0.39 4.09,0.4 5.83,1 a 42.71,42.71 0 0 0 15.08,2.32 54.53,54.53 0 1 0 -102.73,-34.54 z"
     opacity="0.1"
     id="path285" />
  <path
     d="m 845.42,393.07 a 7.29,7.29 0 0 1 0,-3.41 c 0.43,-3.23 -0.11,-6.77 -2.27,-9.21 -3,-3.45 -8.2,-3.78 -12.77,-4.35 -4.57,-0.57 -9.85,-2.33 -11.16,-6.75 -0.94,-3.19 0.48,-7.07 -1.55,-9.7 a 7.8,7.8 0 0 0 -3.52,-2.26 c -3.39,-1.31 -7.2,-2 -10.66,-0.92 -6.07,2 -9.74,9.12 -16.07,10 a 4.92,4.92 0 0 1 -2.84,-0.33 c -2.39,-1.2 -2.49,-4.66 -4.33,-6.6 -2.89,-3.06 -8.38,-1.09 -11.92,-3.36 -2.31,-1.49 -3.2,-4.38 -3.84,-7.05 -1.26,-5.18 -2.27,-10.61 -1.06,-15.79 2.07,-8.86 10,-14.93 15,-22.49 4.71,-7.05 7.35,-16 14.43,-20.64 7.08,-4.64 16.17,-3.61 24.15,-1.24 3.74,1.11 7.44,2.49 11.31,3 6.44,0.79 12.9,-1 19.38,-1.18 a 41.62,41.62 0 0 1 25.59,7.77 14.16,14.16 0 0 1 4.18,4.23 c 1.29,2.28 1.46,5 1.85,7.58 a 38.75,38.75 0 0 0 5,13.93 c 2,3.35 4.51,6.39 6.32,9.85 1.81,3.46 2.87,7.55 1.71,11.27 -0.61,2 -1.82,3.73 -2.27,5.74 -1.06,4.65 2,9.09 4.09,13.38 a 25.1,25.1 0 0 1 2.78,12.69 16,16 0 0 1 -5.7,11.41 c -3.37,2.64 -7.8,3.52 -12.07,3.66 a 42.78,42.78 0 0 1 -15.38,-2.31 c -1.75,-0.6 -4,-1.39 -5.83,-1 -2.78,0.57 -2.42,2.27 -3.6,4.32 -1.52,2.8 -7.69,3.33 -8.95,-0.24 z"
     fill="#434175"
     id="path287" />
  <path
     d="m 816.05,700.5 30.71,-24 48.34,-47.62 c 0,0 -6.5,-0.32 -16,-0.72 -1.73,1.76 -3.27,4 -3.37,6.5 -0.24,5.82 -13.07,0.41 -19.73,3.74 -6.66,3.33 -39.28,45.07 -45,44.8 -5.72,-0.27 -10.23,-2.9 -12.62,1.15 a 2.46,2.46 0 0 1 -0.17,0.27 6.77,6.77 0 0 1 -3.63,2.15 z"
     opacity="0.1"
     id="path289" />
  <path
     d="m 754.15,698.83 15.43,49.26 2.42,7.74 7.35,-2 16.2,-4.45 72.16,-19.82 c 0,0 13.56,-0.18 26,-6.93 13.75,-7.48 29.26,-11.24 44.84,-9.78 9.54,0.89 20.15,-3.22 29,-19.48 0,0 20,-59 -30.48,-76 -50.48,-17 -52.88,9 -52.88,9 0,0 -0.26,0.14 -0.68,0.42 -2,1.25 -7.45,5.18 -7.65,10 -0.24,5.82 -13.07,0.4 -19.73,3.73 -6.66,3.33 -39.28,45.08 -45,44.81 -5.72,-0.27 -10.23,-2.9 -12.62,1.15 0,0.09 -0.11,0.17 -0.17,0.26 -1.76,2.43 -7.06,3 -10.57,3.09 -1.91,0.06 -3.3,0 -3.3,0 l -0.45,0.14 -3.74,1.04 z"
     fill="#434175"
     id="path291" />
  <path
     d="m 758.14,603.14 7.44,1.18 3.1,-30.68 c 0,0 -3.41,-0.51 -7.67,-1.5 1.13,4.25 -1.43,20.82 -2.87,31 z"
     opacity="0.1"
     id="path293" />
  <path
     d="m 952.82,459.64 c 0,0 22.14,-6.43 16.66,56.43 -5.48,62.86 -46.42,102.57 -46.42,102.57 0,0 -47.14,20.71 -68.33,17.38 -21.19,-3.33 -36.66,-4 -36.66,-4 a 53.79,53.79 0 0 0 -21.43,-5.71 c -11.91,-0.48 -36.9,-7.86 -37.38,-10.24 -0.48,-2.38 6.19,-37.38 3.33,-40 0,0 33.33,1.37 36.67,3.78 3.34,2.41 8.09,0.68 11.66,0 3.57,-0.68 14.53,-10.21 36.19,-1.87 0,0 7.38,0.71 10.24,-1.19 2.86,-1.9 7.44,-0.48 7.44,-0.48 0,0 4.49,-1.67 5.18,-2.67 0.69,-1 6.42,0 6.42,0 a 2.54,2.54 0 0 0 3.58,-1.67 15.56,15.56 0 0 1 3.33,-5.23 c 0,0 6.43,-36.19 18.57,-49.76 0,0 3.57,-3.1 2.62,-6.91 -0.95,-3.81 19.79,-58.06 48.33,-50.43 z"
     opacity="0.1"
     id="path295" />
  <path
     d="m 952.28,454.8 c 0,0 22.14,-6.43 16.67,56.43 -5.47,62.86 -46.48,102.61 -46.48,102.61 0,0 -47.14,20.71 -68.33,17.38 -21.19,-3.33 -36.66,-4.05 -36.66,-4.05 a 53.72,53.72 0 0 0 -21.43,-5.71 c -11.9,-0.48 -36.9,-7.86 -37.38,-10.24 -0.48,-2.38 6.19,-37.38 3.34,-40 0,0 33.33,1.37 36.66,3.78 3.33,2.41 8.1,0.68 11.67,0 3.57,-0.68 14.52,-10.2 36.19,-1.87 0,0 7.38,0.71 10.23,-1.19 2.85,-1.9 7.45,-0.48 7.45,-0.48 0,0 4.46,-1.67 5.17,-2.62 0.71,-0.95 6.43,0 6.43,0 a 2.53,2.53 0 0 0 3.57,-1.66 15.54,15.54 0 0 1 3.33,-5.24 c 0,0 6.43,-36.19 18.57,-49.76 0,0 3.57,-3.1 2.62,-6.9 -0.95,-3.8 19.76,-58.1 48.38,-50.48 z"
     fill="#565387"
     id="path297" />
  <path
     d="m 780.28,691.01 31.44,38 c 0.12,-0.11 0.2,-0.19 0.2,-0.22 0.24,-0.72 3.33,-8.81 2.62,-9.29 -0.71,-0.48 -6.19,-12.38 -17.14,-17.38 -6.69,-3 -11.07,-8.49 -13.46,-12.25 z"
     opacity="0.1"
     id="path299" />
  <path
     d="m 780.71,756.85 3.44,2 c 0,0 8,-6.4 15.91,-12.84 7.91,-6.44 15.63,-12.75 15.76,-13.11 0.23,-0.71 3.32,-8.81 2.61,-9.28 -0.37,-0.25 -2,-3.55 -5,-7.37 -21.32,-6 -7.75,8.83 -5.94,9.51 0,0 -26,-6 -27.38,22.31 a 33.36,33.36 0 0 0 0.6,8.78 z"
     opacity="0.1"
     id="path301" />
  <path
     d="m 807,768.83 4.53,2.62 46,1.19 c 0,0 9.86,6 16.26,7.82 a 13.93,13.93 0 0 0 2.31,0.51 103.27,103.27 0 0 0 12.8,0.24 c 3.52,-0.09 6.25,-0.24 6.25,-0.24 0,0 -2.18,-58 -3.82,-64 -0.78,-2.92 -4.63,-2.28 -8.43,-0.82 a 55.19,55.19 0 0 0 -8.23,4.17 c 0,0 -19.52,1.89 -22.62,3.57 -3.1,1.68 -11.9,-1 -17.38,0 -5.48,1 -15.23,-6.45 -15.23,-6.45 -26.67,-8.8 -11.67,7.62 -9.77,8.34 0,0 -25.94,-6 -27.37,22.31 -1.43,28.31 24.7,20.74 24.7,20.74 z"
     fill="#565387"
     id="path303" />
  <path
     d="m 873.43,746.45 c 0.5,12 9.85,26.89 15.42,34.76 3.52,-0.09 6.25,-0.24 6.25,-0.24 0,0 -2.18,-58 -3.82,-64 -0.78,-2.92 -4.63,-2.28 -8.43,-0.82 -4.57,8.6 -9.82,20.63 -9.42,30.3 z"
     fill="#565387"
     id="path305" />
  <path
     d="m 873.43,746.45 c 0.5,12 9.85,26.89 15.42,34.76 3.52,-0.09 6.25,-0.24 6.25,-0.24 0,0 -2.18,-58 -3.82,-64 -0.78,-2.92 -4.63,-2.28 -8.43,-0.82 -4.57,8.6 -9.82,20.63 -9.42,30.3 z"
     opacity="0.1"
     id="path307" />
  <path
     d="m 865.57,748.04 c 3.16,11.58 3.13,24.57 8.17,32.42 a 13.93,13.93 0 0 0 2.31,0.51 103.27,103.27 0 0 0 12.8,0.24 c 3.52,-0.09 6.25,-0.24 6.25,-0.24 0,0 -2.18,-58 -3.82,-64 -0.78,-2.92 -4.63,-2.28 -8.43,-0.82 a 55.19,55.19 0 0 0 -8.23,4.17 c 0,0 -13.09,12.9 -9.05,27.72 z"
     opacity="0.05"
     id="path309" />
  <path
     d="m 707.05,630.58 c 0,0 22.82,7.41 42.16,33.73 z"
     opacity="0.1"
     id="path311" />
  <g
     opacity="0.1"
     id="g317">
    <path
       d="m 922.23,401.26 a 4.67,4.67 0 0 1 -0.14,0.5 16.15,16.15 0 0 1 -0.79,2 14.93,14.93 0 0 1 0.93,-2.5 z"
       transform="translate(-29.72,-56.36)"
       id="path313" />
    <path
       d="m 793.11,389.71 a 21.46,21.46 0 0 1 1.77,-4.81 c -0.12,0.41 -0.25,0.82 -0.35,1.24 -1.21,5.18 -0.2,10.61 1.06,15.79 0.65,2.67 1.53,5.56 3.84,7.05 3.55,2.27 9,0.29 11.92,3.35 1.84,1.95 1.94,5.41 4.34,6.61 a 4.91,4.91 0 0 0 2.84,0.33 c 6.32,-0.9 10,-8 16.07,-10 3.46,-1.12 7.26,-0.39 10.65,0.92 a 7.8,7.8 0 0 1 3.52,2.26 c 2,2.63 0.61,6.51 1.55,9.69 1.31,4.42 6.59,6.18 11.16,6.75 4.57,0.57 9.72,0.9 12.77,4.36 2.16,2.44 2.71,6 2.27,9.21 a 7.42,7.42 0 0 0 0,3.41 c 1.26,3.57 7.44,3 9,0.22 1.18,-2.05 0.83,-3.75 3.61,-4.32 1.87,-0.39 4.08,0.4 5.82,1 a 42.78,42.78 0 0 0 15.38,2.31 c 4.27,-0.15 8.71,-1 12.07,-3.66 a 14,14 0 0 0 3.7,-4.5 15.14,15.14 0 0 1 -5.1,8.08 c -3.36,2.64 -7.79,3.52 -12.07,3.66 a 42.69,42.69 0 0 1 -15.37,-2.31 c -1.75,-0.6 -4,-1.39 -5.83,-1 -2.78,0.57 -2.43,2.27 -3.6,4.32 -1.62,2.82 -7.79,3.35 -9.06,-0.22 a 7.42,7.42 0 0 1 0,-3.41 c 0.44,-3.23 -0.1,-6.77 -2.26,-9.21 -3.06,-3.45 -8.21,-3.78 -12.78,-4.35 -4.57,-0.57 -9.85,-2.33 -11.15,-6.75 -0.95,-3.19 0.48,-7.07 -1.55,-9.7 a 7.88,7.88 0 0 0 -3.53,-2.26 c -3.39,-1.31 -7.19,-2 -10.65,-0.92 -6.08,2 -9.75,9.12 -16.07,10 a 4.91,4.91 0 0 1 -2.84,-0.33 c -2.4,-1.2 -2.5,-4.66 -4.34,-6.6 -2.89,-3.06 -8.37,-1.09 -11.91,-3.36 -2.32,-1.49 -3.2,-4.38 -3.85,-7.05 -1.24,-5.19 -2.25,-10.62 -1.03,-15.8 z"
       transform="translate(-29.72,-56.36)"
       id="path315" />
  </g>
  <path
     d="m 896.2,523.9 c -4.36,5.89 -9.34,11.34 -13.2,17.57 -3.86,6.23 -6.59,13.5 -5.78,20.78 4,-4.1 5.82,-9.76 8.34,-14.9 4.26,-8.7 10.64,-16.08 16,-24.08 1,-1.53 7.61,-10.35 4.28,-10.77 -2.74,-0.35 -8.15,9.39 -9.64,11.4 z"
     opacity="0.1"
     id="path319" />
</svg>
